<svg width="172" height="86" viewBox="0 0 172 86" fill="none" xmlns="http://www.w3.org/2000/svg">
<path d="M45.8834 35.9871C45.9016 36.0198 50.9936 45.2216 53.4928 49.8855H48.7115L47.3483 47.4216H39.1139L37.6959 49.9333H32.8405L40.7799 35.9734L45.8834 35.9871ZM66.4967 39.2927H60.3346V49.9333H56.024V39.2927H49.86V35.9734H66.4967V39.2927ZM82.319 35.9734C84.6612 35.9736 86.5758 37.9204 86.5758 40.2966V45.613C86.5758 47.9893 84.6597 49.9331 82.319 49.9333H72.0895C69.7502 49.9331 67.8356 47.9892 67.8356 45.613V40.2966C67.8356 37.9204 69.7502 35.9736 72.0895 35.9734H82.319ZM111.436 35.9929V49.9226H107.163V39.6433L101.533 49.9226L98.4987 49.9275L92.4235 40.0017V49.9226L88.2975 49.9333V35.988L94.9088 35.9841L99.8512 44.948L104.68 35.9734L111.436 35.9929ZM117.747 49.9333H113.54V35.9734H117.747V49.9333ZM124.286 41.157H126.41L132.034 35.9763H137.989L129.97 42.8406L138.973 49.9167L132.832 49.9333L126.532 44.531H124.286V49.9128L119.85 49.9099V35.9734H124.286V41.157ZM73.6793 39.3796C72.7983 39.3796 72.077 40.0939 72.0768 40.9636V45.0154C72.0769 45.8882 72.7968 46.6003 73.6793 46.6003H80.4303C81.3083 46.6002 82.0318 45.8881 82.0319 45.0154V40.9636C82.0316 40.094 81.3097 39.3798 80.4303 39.3796H73.6793ZM40.7272 43.9031L45.4869 43.9001L43.1315 39.7996L40.7272 43.9031Z" fill="#01F8D1"/>
</svg>
