<svg width="115" height="8" viewBox="0 0 115 8" fill="none" xmlns="http://www.w3.org/2000/svg">
<path d="M0 0H2.38472C2.80488 0 3.19666 0.0562001 3.56004 0.1686C3.92343 0.281 4.21679 0.468334 4.44012 0.730602C4.66723 0.992869 4.78079 1.35068 4.78079 1.80402C4.78079 2.1075 4.72212 2.37914 4.60478 2.61893C4.48743 2.85871 4.33791 3.05541 4.15622 3.20903C3.97453 3.35889 3.78337 3.45443 3.58275 3.49565C3.75309 3.51438 3.92721 3.56496 4.10512 3.64739C4.28303 3.72982 4.44769 3.84409 4.5991 3.99021C4.75051 4.13633 4.87164 4.31992 4.96248 4.54097C5.05712 4.76202 5.10443 5.02055 5.10443 5.31653C5.10443 5.72867 5.01358 6.09397 4.83189 6.41243C4.65398 6.72716 4.38902 6.97444 4.03699 7.15428C3.68874 7.33037 3.25533 7.41842 2.73675 7.41842H0V0ZM1.41947 6.28317H2.44717C2.73485 6.28317 2.96386 6.23634 3.1342 6.14267C3.30832 6.04901 3.43324 5.92162 3.50894 5.76051C3.58465 5.59941 3.6225 5.41582 3.6225 5.20975C3.6225 4.88004 3.51651 4.62714 3.30454 4.45105C3.09256 4.27496 2.79163 4.18691 2.40175 4.18691H1.41947V6.28317ZM1.41947 3.07415H2.32226C2.55695 3.07415 2.75 3.02919 2.90141 2.93927C3.0566 2.8456 3.17395 2.72196 3.25344 2.56835C3.33293 2.41099 3.37267 2.24051 3.37267 2.05692C3.37267 1.70474 3.26858 1.46308 3.06039 1.33194C2.85598 1.20081 2.57777 1.13524 2.22574 1.13524H1.41947V3.07415Z" fill="#01F8D1"/>
<path d="M11.8876 0H16.5378V1.24202H13.2957V3.09663H16.4923V4.29931H13.2957V6.17639H16.5378V7.41842H11.8876V0Z" fill="#01F8D1"/>
<path d="M25.7441 0H27.1693L30.0536 7.41842H28.5433L27.9585 5.81671H24.9606L24.3644 7.41842H22.8484L25.7441 0ZM25.4262 4.57469H27.4929L26.4652 1.69724H26.4482L25.4262 4.57469Z" fill="#01F8D1"/>
<path d="M40.8807 0H42.3002V4.57469C42.3002 5.1854 42.1771 5.71368 41.9311 6.15953C41.6888 6.60539 41.3463 6.95008 40.9034 7.19362C40.4643 7.4334 39.9457 7.5533 39.3477 7.5533C38.7458 7.5533 38.2215 7.4334 37.7749 7.19362C37.332 6.95008 36.9875 6.60539 36.7415 6.15953C36.4993 5.71368 36.3781 5.1854 36.3781 4.57469V0H37.7919V4.50163C37.7919 4.8763 37.8563 5.19664 37.985 5.46265C38.1175 5.72492 38.301 5.92537 38.5357 6.06399C38.7704 6.19887 39.0411 6.26631 39.3477 6.26631C39.6505 6.26631 39.9173 6.19887 40.1482 6.06399C40.3791 5.92537 40.5589 5.72492 40.6876 5.46265C40.8163 5.19664 40.8807 4.8763 40.8807 4.50163V0Z" fill="#01F8D1"/>
<path d="M50.7132 1.24202H48.8338V0H54.0064V1.24202H52.1327V7.41842H50.7132V1.24202Z" fill="#01F8D1"/>
<path d="M62.8392 4.74891L60.2784 0H61.9988L63.5432 3.13597L65.0933 0H66.8023L64.2586 4.74891V7.41842H62.8392V4.74891Z" fill="#01F8D1"/>
<path d="M89.0917 7.41842H87.3656L85.9746 1.80964H86.2357L84.839 7.41842H83.1072L81.4493 0H83.0732L84.0668 5.57505H84.0498L85.5374 0H86.6673L88.1606 5.57505H88.1378L89.1372 0H90.761L89.0917 7.41842Z" fill="#01F8D1"/>
<path d="M97.5107 0H102.161V1.24202H98.9188V3.09663H102.116V4.29931H98.9188V6.17639H102.161V7.41842H97.5107V0Z" fill="#01F8D1"/>
<path d="M109.244 0H111.629C112.049 0 112.441 0.0562001 112.804 0.1686C113.168 0.281 113.461 0.468334 113.684 0.730602C113.911 0.992869 114.025 1.35068 114.025 1.80402C114.025 2.1075 113.966 2.37914 113.849 2.61893C113.732 2.85871 113.582 3.05541 113.4 3.20903C113.219 3.35889 113.027 3.45443 112.827 3.49565C112.997 3.51438 113.171 3.56496 113.349 3.64739C113.527 3.72982 113.692 3.84409 113.843 3.99021C113.995 4.13633 114.116 4.31992 114.207 4.54097C114.301 4.76202 114.349 5.02055 114.349 5.31653C114.349 5.72867 114.258 6.09397 114.076 6.41243C113.898 6.72716 113.633 6.97444 113.281 7.15428C112.933 7.33037 112.499 7.41842 111.981 7.41842H109.244V0ZM110.664 6.28317H111.691C111.979 6.28317 112.208 6.23634 112.378 6.14267C112.552 6.04901 112.677 5.92162 112.753 5.76051C112.829 5.59941 112.867 5.41582 112.867 5.20975C112.867 4.88004 112.761 4.62714 112.549 4.45105C112.337 4.27496 112.036 4.18691 111.646 4.18691H110.664V6.28317ZM110.664 3.07415H111.566C111.801 3.07415 111.994 3.02919 112.146 2.93927C112.301 2.8456 112.418 2.72196 112.498 2.56835C112.577 2.41099 112.617 2.24051 112.617 2.05692C112.617 1.70474 112.513 1.46308 112.304 1.33194C112.1 1.20081 111.822 1.13524 111.47 1.13524H110.664V3.07415Z" fill="#01F8D1"/>
</svg>
