<svg width="172" height="86" viewBox="0 0 172 86" fill="none" xmlns="http://www.w3.org/2000/svg">
<path d="M99.7174 40.8439C101.625 42.8769 102.987 45.7151 103.036 48.4588C103.067 50.4289 102.257 52.3495 101.249 53.8833C98.7724 57.657 93.0262 59.1728 88.637 57.594C87.6204 57.2297 87.1232 56.9823 87.1232 56.9823C87.1232 56.9823 87.1501 51.0721 87.1501 48.8861C87.8309 49.1785 88.319 49.5518 88.7983 49.7002C89.8418 50.0151 91.2571 50.2445 92.005 49.201C92.7709 48.135 92.6097 46.9835 91.9199 46.0255C91.4541 45.3733 91.0511 44.811 90.4778 44.2398C86.9441 40.7314 85.5915 36.6833 87.8219 32.3923C89.7746 28.6366 93.5144 27.0083 98.2215 27.4086C100.998 27.6425 101.881 28.5556 102.535 29.0459C102.535 30.4402 102.508 36.5214 102.508 36.5214C102.508 36.5214 99.0859 34.5243 98.002 36.7778C97.1466 38.5589 98.6335 39.6789 99.7219 40.8394L99.7174 40.8439ZM45.3098 46.5427C46.2503 55.1337 53.8776 59.9959 62.8351 58.1788C63.8204 57.9809 64.3758 57.5851 64.3758 57.5851V49.4529C59.803 51.4724 54.6166 49.4169 54.6166 44.2128C54.6166 37.1691 61.7064 36.0716 64.3758 38.37V30.1704C64.3758 30.1704 63.6099 29.5766 61.9707 29.4282C51.3337 28.4836 44.1543 35.9502 45.3098 46.5427ZM85.9408 52.0301C85.2332 55.5475 82.5415 56.8834 79.4825 57.594C75.2546 58.5746 65.7955 58.0798 65.7955 58.0798V29.6621C65.7955 29.6621 74.4484 29.3877 78.2016 29.887C81.2874 30.2963 84.1001 31.5962 85.0048 34.8662C85.8647 37.9787 85.699 41.3027 82.5997 43.6775C85.802 45.7511 86.6306 48.6027 85.9408 52.0301ZM74.7351 39.2561C74.7351 39.2561 76.6878 39.481 76.6878 37.7268C76.6878 35.6443 74.7351 35.9996 74.7351 35.9996V39.2561ZM76.8087 48.8411C76.8087 46.6866 74.7351 47.051 74.7351 47.051V50.4289C74.7351 50.4289 76.8087 50.6628 76.8087 48.8411ZM123.737 54.7739C123.352 55.3586 122.962 55.7949 122.219 56.2537C118.129 58.7725 113.839 58.7995 109.803 56.4471C105.759 54.0857 103.524 50.4154 104.084 45.5442C104.631 40.7764 107.215 37.4614 111.805 35.9591C116.024 34.5783 120.302 35.2935 123.222 37.9157C125.725 40.1647 126.626 42.6385 126.626 42.6385C126.626 42.6385 118.689 47.3748 115.2 49.4753C118.43 51.4004 121.323 49.156 123.732 46.6507C123.732 49.5338 123.732 52.426 123.732 54.7694L123.737 54.7739ZM112.249 44.9639C113.758 44.0014 115.577 42.4451 115.577 42.4451C115.577 42.4451 111.85 41.3701 112.249 44.9639ZM118.452 29.3562H114.538L112.697 33.9171H115.944L118.447 29.3562H118.452Z" fill="#01F8D1"/>
</svg>
