<svg width="172" height="86" viewBox="0 0 172 86" fill="none" xmlns="http://www.w3.org/2000/svg">
<path d="M30.0084 39.6543C33.2595 32.3522 40.3179 29.9119 47.9577 30.265C48.1536 30.4006 48.6054 33.9161 48.6718 34.4584C49.1584 38.4341 49.3574 42.6621 49.013 46.4425C49.0067 46.515 48.9498 46.7388 48.9214 46.7577C48.8266 46.8176 47.1394 46.6064 46.6749 46.66C45.0193 46.8555 43.7745 48.0473 44.3811 49.7814C44.9878 51.5154 48.0241 51.5438 49.5533 51.61C49.8187 51.7834 50.3937 54.8512 50.2895 55.2737C45.0099 57.4208 37.8883 58.0387 33.1426 54.3688C30.8046 52.559 29.2185 49.4787 29.0226 46.5244C28.8614 44.1188 29.2121 41.9149 30.0052 39.6575L30.0084 39.6543ZM65.9576 36.5708C61.4964 36.5708 59.31 36.9523 59.31 36.9523C59.31 36.9523 58.5517 41.1961 58.9024 43.3243C60.0272 43.567 61.1804 43.6175 62.3305 43.5828C62.2673 46.0578 61.904 50.9132 62.163 54.5674C65.1614 55.3052 66.9434 54.9206 69.2088 54.8638C69.6606 51.0677 69.7365 47.4262 69.5785 43.608C70.6022 43.6238 71.6448 43.6395 72.6338 43.3463C72.8391 41.2465 72.697 38.9291 72.3873 36.8545C70.2515 36.7631 70.4158 36.5739 65.9545 36.5739L65.9576 36.5708ZM115.544 41.0605L116.027 35.565C116.027 35.565 115.253 35.1772 112.757 35.1772C110.261 35.1772 108.675 35.4957 108.675 35.4957C108.675 35.4957 107.939 46.0893 108.678 51.2285C108.732 51.5943 109.095 53.5112 109.095 53.5112C109.095 53.5112 110.871 53.7729 113.237 53.7729C115.032 53.7729 115.512 53.5049 116.403 53.3883C115.711 49.321 115.455 45.1971 115.54 41.0636L115.544 41.0605ZM58.0304 39.3485C58.1504 37.9202 58.6275 35.0637 58.6275 35.0637C58.6275 35.0637 56.855 34.6727 55.1773 34.5939C53.6449 34.5246 52.795 34.6318 51.2752 34.7547C51.0699 36.1987 50.776 37.6459 50.656 39.1025C50.3874 42.3563 50.3937 45.9002 50.656 49.1571C50.7539 50.3709 50.9972 51.6699 51.1647 52.8806C53.5564 53.3536 55.7744 53.5018 58.4 52.8996C57.8408 48.4067 57.6544 43.8665 58.0304 39.3485ZM138.899 37.2613C137.875 37.5072 136.943 38.0526 135.913 39.2823C134.883 40.5119 134.232 41.9811 133.679 43.4598C133.038 45.175 132.883 46.7136 131.525 48.1166C130.397 49.28 128.453 49.8917 128.453 49.8917L132.507 55.7876C132.507 55.7876 134.893 55.1728 135.885 54.3688C138.662 52.1208 139.155 49.1319 140.476 46.0704C141.499 43.6963 142.829 43.2044 142.829 43.2044L138.899 37.2581V37.2613ZM102.514 45.3516L108.349 34.3039C108.349 34.3039 106.934 32.8788 105.082 31.4379C104.185 30.738 101.082 28.903 101.082 28.903L94.8991 39.9002C94.8991 39.9002 94.937 36.8672 95.2719 34.1052C95.5626 31.7059 96.1597 29.543 96.1281 29.3538C94.4852 29.2151 92.8454 28.8998 91.3509 28.903C88.5926 28.9093 86.1851 28.9755 86.1851 28.9755C86.1851 28.9755 85.8154 32.3995 85.8501 32.636C85.8849 32.8725 89.3857 35.1993 90.2514 35.9749C91.1361 36.7694 91.9702 37.3748 91.332 38.6706C89.3351 41.9149 85.3035 46.4488 85.3035 46.4488L85.2751 54.1229C85.2751 54.1229 89.3794 54.3625 90.8391 54.3688C92.2387 54.3751 93.6195 54.2553 95.0191 54.2458L94.8959 51.1781C96.2893 53.0257 97.6352 54.8859 99.3793 56.4213C99.5499 56.4339 101.875 54.7471 102.204 54.4855C103.436 53.5081 104.785 52.2406 105.834 51.0551C106.093 50.7619 106.694 50.0147 106.694 50.0147L102.51 45.3484L102.514 45.3516ZM90.4125 37.8225C89.7332 37.1824 86.3178 34.6349 85.0223 33.7616C84.738 34.1588 81.272 39.1215 81.0129 38.9228L78.4379 32.8472L72.2894 34.5088C72.2894 34.5088 73.2151 37.1698 73.4237 37.7247C74.2451 39.9034 76.2104 44.1345 76.2104 44.1345L71.9955 48.6242C71.9955 48.6242 73.1235 49.9705 74.1314 50.9416C75.1393 51.9127 77.1235 53.3473 77.1235 53.3473C77.1235 53.3473 77.6922 52.8113 77.8597 52.641C81.9481 48.4666 86.6843 43.917 89.7206 38.9607C89.8944 38.6769 90.2672 38.1315 90.4157 37.8225H90.4125ZM130.466 46.8776C127.278 50.7777 121.844 51.1655 117.136 50.8849C117.136 50.8849 116.747 48.1482 116.747 44.0494C116.747 40.3637 116.981 36.678 117.657 33.0553C117.948 32.7211 122.905 32.9481 123.686 33.0648C125.986 33.4116 128.355 34.698 128.943 35.1173C132.842 37.8981 133.506 43.1603 130.466 46.8776ZM123.209 43.1099C123.028 42.9964 122.295 42.5896 122.308 43.0247C122.235 44.5696 122.09 46.083 122.308 47.6279C122.435 47.7761 123.36 46.783 123.468 46.6379C124.277 45.525 124.539 43.9328 123.209 43.1099Z" fill="#01F8D1"/>
</svg>
