<svg width="172" height="86" viewBox="0 0 172 86" fill="none" xmlns="http://www.w3.org/2000/svg">
<path d="M39.9376 33.6716C41.1323 33.6716 42.242 33.8624 43.2726 34.2439C44.3029 34.6254 45.1887 35.1977 45.9435 35.9607C46.6064 36.6317 47.1449 37.4539 47.5519 38.4275V33.6716H61.4083V37.1052H51.6281V41.0847H60.6075V44.2556H51.6281L51.6222 44.2488V48.8015H61.6124V52.2351H47.5519V47.3669C47.2237 48.1892 46.7903 48.9203 46.2521 49.5583C45.5498 50.387 44.6764 51.0447 43.6329 51.5183C42.5893 51.9984 41.3553 52.2351 39.9376 52.2351H31.9493V33.6716H39.9376ZM73.6925 46.4402H73.7452L77.8507 33.6716H83.5861V50.5779L89.9718 33.6716H94.1505L100.431 50.4861V33.6716H110.43C111.264 33.6716 112.013 33.8033 112.677 34.073C113.347 34.3427 113.919 34.7105 114.392 35.1775C114.865 35.6445 115.233 36.1842 115.483 36.8025C115.732 37.4143 115.857 37.6978 115.857 38.7898C115.857 39.8816 115.627 40.8289 115.167 41.6248C114.707 42.4273 113.958 43.0326 112.92 43.447V43.4998C113.426 43.6379 113.84 43.8481 114.168 44.1375C114.497 44.4203 114.76 44.763 114.97 45.1511C115.173 45.5457 115.331 45.9733 115.423 46.4402C115.521 46.9072 115.587 47.3745 115.62 47.8416C115.64 48.1375 115.653 48.4795 115.673 48.8806C115.693 49.2819 115.719 49.6898 115.765 50.1042H115.751C115.797 50.5185 115.87 50.913 115.962 51.2878C116.054 51.6561 116.198 51.972 116.389 52.2351H112.309C112.085 51.6498 111.947 50.9461 111.895 50.1306C111.842 49.315 111.763 48.5321 111.658 47.7888C111.52 46.8218 111.225 46.1043 110.778 45.657C110.325 45.2031 109.589 44.9792 108.57 44.9792H104.497V52.2351H96.8439L95.4445 48.1042H88.5138L87.0616 52.2351H79.7697V39.0789H79.7169L75.17 52.2351H72.0304L67.4835 39.2107H67.4318V52.2351H63.6144V33.6716H69.3566L73.6925 46.4402ZM122.453 33.6716V50.5779L128.814 33.6716H132.961L139.864 52.2351H135.651L134.257 48.1042H127.355L125.908 52.2351H118.391V33.6716H122.453ZM36.0255 48.8083H39.6554C40.246 48.8083 40.817 48.709 41.3683 48.5183C41.9197 48.3275 42.4126 48.0118 42.8458 47.571C43.2789 47.1304 43.627 46.5518 43.8829 45.8416V45.8347C44.1389 45.1243 44.2697 44.1702 44.2697 43.2361C44.2697 42.3021 44.1848 41.4602 44.0011 40.7039C43.8239 39.9539 43.522 39.3087 43.1085 38.7693C42.6951 38.23 42.1435 37.8158 41.4611 37.533C40.7785 37.2501 39.9379 37.1052 38.9337 37.1052H36.0255V48.8083ZM89.5841 45.0583H94.3937L92.0548 38.2439H92.0021L89.5841 45.0583ZM130.828 38.2439L128.421 45.0583H133.21L130.881 38.2439H130.828ZM104.511 42.072H108.978C109.91 42.072 110.614 41.8614 111.08 41.447C111.547 41.0326 111.783 40.3219 111.783 39.4207C111.783 38.5196 111.547 37.8685 111.08 37.4607C110.614 37.0529 109.91 36.8484 108.978 36.8484H104.511V42.072Z" fill="#01F8D1"/>
</svg>
