<svg width="133" height="86" viewBox="0 0 133 86" fill="none" xmlns="http://www.w3.org/2000/svg">
<path d="M34.4236 38.5542C33.7789 37.8129 32.9563 37.2223 31.9419 36.7832C30.955 36.3303 29.7618 36.097 28.3769 36.097C28.2532 36.097 28.034 36.097 27.7185 36.1245C27.4168 36.1383 27.0608 36.1659 26.6491 36.1934C26.2381 36.2072 25.7989 36.2347 25.3467 36.2622C24.8808 36.276 24.4415 36.3036 24.0168 36.3311C23.5921 36.3449 23.2079 36.3586 22.8649 36.3724C22.5357 36.3862 22.289 36.3999 22.1385 36.3999H19.329C19.5483 37.0181 19.6995 37.6767 19.7812 38.3637C19.8637 39.0499 19.905 39.8195 19.905 40.6564V47.0274C19.905 47.865 19.8637 48.6201 19.7812 49.3201C19.6987 49.9925 19.5483 50.6382 19.329 51.2563H20.9744C21.1936 51.2563 21.5366 51.2701 21.9888 51.2838C22.441 51.2976 22.9482 51.3114 23.4967 51.3251C24.0588 51.3389 24.6485 51.3665 25.265 51.394C25.8959 51.4215 26.4849 51.4491 27.0333 51.4628C27.6093 51.4766 28.1027 51.4904 28.5274 51.5042C28.9796 51.5179 29.2951 51.5317 29.5006 51.5317C30.6662 51.5317 31.6806 51.3121 32.5308 50.8723C33.381 50.4331 34.0937 49.8563 34.6559 49.1426C35.2181 48.4151 35.629 47.6049 35.9032 46.6984C36.1912 45.7781 36.3279 44.8723 36.3279 43.9521C36.3279 42.9637 36.1775 42.0021 35.862 41.0688C35.5603 40.1217 35.0806 39.284 34.4221 38.5557L34.4236 38.5542ZM29.2554 44.9251C29.1591 45.2686 29.0224 45.557 28.8307 45.8317C28.6389 46.1063 28.406 46.3259 28.118 46.4773C27.8438 46.628 27.5283 46.7106 27.1723 46.7106C27.0219 46.7106 26.8981 46.6969 26.7881 46.6693C26.7056 46.6418 26.5964 46.6005 26.4864 46.5729V41.1766C26.6231 41.1491 26.7469 41.1215 26.8706 41.1078C27.0081 41.094 27.0898 41.0802 27.1586 41.0802C27.5291 41.0802 27.8575 41.1766 28.118 41.3136C28.406 41.478 28.6389 41.6846 28.8307 41.9592C29.0224 42.2201 29.1599 42.5223 29.2554 42.8657C29.3516 43.1955 29.3929 43.5382 29.3929 43.8817C29.3929 44.2252 29.3516 44.5816 29.2554 44.9251ZM43.994 41.1215V46.4766C43.994 47.4099 44.0353 48.2613 44.1178 49.0301C44.2003 49.7852 44.3507 50.5127 44.57 51.2135H36.8374C37.0567 50.5135 37.2079 49.799 37.2896 49.0301C37.3721 48.2613 37.4134 47.4099 37.4134 46.4766V41.1215C37.4134 40.1875 37.3721 39.3506 37.2896 38.5947C37.2071 37.8259 37.0567 37.0846 36.8374 36.3977H44.57C44.3507 37.0976 44.1995 37.8259 44.1178 38.5947C44.0353 39.3498 43.994 40.2012 43.994 41.1215ZM60.8577 45.3099L60.2405 42.3302C60.0075 41.1491 59.8425 40.0781 59.7471 39.131C59.6966 38.5458 59.6569 37.982 59.6271 37.4373C59.6791 37.2545 59.7379 37.0035 59.7875 36.6593C59.938 35.5745 59.9105 33.6934 59.4858 34.6274C59.0237 35.7183 58.2698 36.1551 57.6144 36.4122H50.2378C49.5824 36.1544 48.8292 35.7183 48.3663 34.6274C47.9416 33.6934 47.9141 35.5745 48.0646 36.6593C48.1074 36.9538 48.1563 37.1802 48.2021 37.3547C48.1716 37.9246 48.1303 38.5167 48.0784 39.131C48.0096 40.0781 47.8454 41.1491 47.6124 42.3302L46.9952 45.3099C46.7622 46.4911 46.4605 47.5621 46.1175 48.5229C45.7883 49.457 45.3774 50.3628 44.8702 51.2142V51.228H53.2474C53.1649 50.6925 53.0969 50.157 53.0282 49.6215C52.9869 49.086 52.9594 48.5229 52.9594 47.9186H54.879C54.879 48.5229 54.8515 49.086 54.7827 49.6215C54.7277 50.157 54.6728 50.6925 54.591 51.228L62.9545 51.2004C62.4748 50.349 62.0493 49.457 61.7071 48.5092C61.3779 47.5621 61.0899 46.4911 60.8569 45.3099H60.8577ZM54.688 45.3237H53.1932V45.2962L53.6591 42.1933V41.4658C53.6591 41.2049 53.7554 41.081 53.9471 41.081C54.0158 41.081 54.0708 41.1085 54.1113 41.1774C54.1801 41.2462 54.2076 41.3419 54.2076 41.4658H54.2213V42.1933L54.6873 45.2962V45.3237H54.688ZM80.5454 44.8425C80.2712 44.5403 79.9144 44.307 79.476 44.1288C79.0238 43.9367 78.4753 43.8404 77.8169 43.8404H76.83C76.6933 43.8404 76.597 43.8128 76.5283 43.744C76.4595 43.6751 76.432 43.6208 76.432 43.552C76.432 43.4693 76.4595 43.4012 76.5283 43.3324C76.5833 43.2635 76.6925 43.236 76.83 43.236H77.8444C78.4478 43.236 78.9275 43.1258 79.2843 42.9063C79.641 42.673 79.929 42.3846 80.1344 42.0548C80.3399 41.7251 80.4637 41.3686 80.5324 41.0114C80.6011 40.6404 80.6286 40.2976 80.6286 39.9955C80.6286 39.515 80.4919 39.0484 80.2039 38.5947C79.9297 38.1281 79.505 37.702 78.9016 37.3455C78.3119 36.9745 77.5442 36.6731 76.6115 36.4527C75.6934 36.2194 74.5827 36.0955 73.2803 36.0955C73.1574 36.0955 72.9099 36.1092 72.5539 36.123C72.1972 36.1368 71.7862 36.1643 71.3203 36.1919C70.8543 36.2056 70.3334 36.2332 69.7849 36.2607C69.2502 36.2745 68.7293 36.302 68.2221 36.3296C67.7286 36.3433 67.2894 36.3571 66.8922 36.3709C66.508 36.3846 66.2345 36.3984 66.0833 36.3984H63.2455C63.4648 37.0165 63.616 37.6752 63.6977 38.3622C63.7802 39.0484 63.8207 39.818 63.8207 40.6549V47.0258C63.8207 47.8635 63.7795 48.6186 63.6977 49.3185C63.6152 49.991 63.4648 50.6366 63.2455 51.2548H64.9046C65.1239 51.2548 65.4806 51.2685 65.9878 51.2823C66.495 51.2961 67.0572 51.3098 67.6881 51.3236C68.3191 51.3374 68.9768 51.3649 69.6765 51.3925C70.3891 51.42 71.0613 51.4475 71.6915 51.4613C72.3225 51.4751 72.8847 51.4889 73.3506 51.5026C73.8441 51.5164 74.187 51.5302 74.3925 51.5302C75.5444 51.5302 76.5588 51.4062 77.4227 51.1316C78.2867 50.857 79.0131 50.5135 79.5753 50.0881C80.165 49.649 80.5897 49.1548 80.8777 48.6193C81.1656 48.0701 81.3024 47.507 81.3024 46.944C81.3024 46.5867 81.2474 46.2165 81.1381 45.8592C81.0281 45.4882 80.8364 45.1455 80.5484 44.8433L80.5454 44.8425ZM70.4411 40.9984C70.6053 40.9984 70.8528 40.9846 71.1675 40.9571C71.4967 40.9295 71.8389 40.9158 72.1819 40.9158C72.5799 40.9158 72.9358 40.9571 73.2513 41.0397C73.5668 41.1223 73.7173 41.3143 73.7173 41.6303C73.7173 41.9187 73.553 42.1245 73.2238 42.2484C72.9083 42.3723 72.5791 42.4404 72.2507 42.4404V42.4129H70.4411V40.9984ZM74.0327 46.436C73.6485 46.5324 73.2101 46.5729 72.7029 46.5729C72.2369 46.5729 71.7977 46.5454 71.373 46.5041C70.962 46.4628 70.6466 46.4352 70.4273 46.4352V45.007H72.4156C72.7036 45.007 72.9778 45.0208 73.2246 45.0345C73.4988 45.0483 73.7318 45.0896 73.9373 45.1309C74.1427 45.1722 74.3077 45.2548 74.4307 45.3642C74.5537 45.4606 74.6224 45.5976 74.6224 45.7896C74.6224 46.1055 74.4307 46.3251 74.0327 46.4352V46.436ZM81.7928 51.2004H81.7966C81.7951 51.205 81.7935 51.2096 81.7928 51.2142V51.2004ZM92.4188 45.9005C93.1865 45.6672 93.9129 45.2824 94.5988 44.7607L93.9817 51.2004H81.7973C82.0143 50.5043 82.164 49.7951 82.2457 49.0309C82.3282 48.2621 82.3695 47.4106 82.3695 46.4773V41.1223C82.3695 40.1882 82.3282 39.3513 82.2457 38.5955C82.1632 37.8267 82.0128 37.0854 81.7935 36.3984H89.5261C89.3068 37.0984 89.1556 37.8267 89.0739 38.5955C88.9914 39.3506 88.9501 40.202 88.9501 41.1223V46.2578H89.869C90.8017 46.2578 91.6511 46.1346 92.4196 45.9005H92.4188ZM104.524 51.228L112.888 51.2004C112.408 50.349 111.983 49.457 111.641 48.5092C111.311 47.5621 111.023 46.4911 110.79 45.3099L110.173 42.3302C109.94 41.1491 109.776 40.0781 109.68 39.131C109.597 38.1702 109.543 37.2636 109.515 36.4122H98.1768C98.1493 37.2636 98.0943 38.1694 98.0125 39.131C97.9438 40.0781 97.7795 41.1491 97.5458 42.3302L96.9294 45.3099C96.6964 46.4911 96.3947 47.5621 96.0517 48.5229C95.7225 49.457 95.3115 50.3628 94.8043 51.2142V51.228H103.181C103.099 50.6925 103.03 50.157 102.962 49.6215C102.92 49.086 102.893 48.5229 102.893 47.9186H104.812C104.812 48.5229 104.785 49.086 104.717 49.6215C104.662 50.157 104.607 50.6925 104.524 51.228ZM104.607 45.3237H103.127V45.2962L103.593 42.1933V41.4658C103.593 41.2049 103.688 41.081 103.88 41.081C103.949 41.081 104.003 41.1085 104.045 41.1774C104.113 41.2462 104.141 41.3419 104.141 41.4658V42.1933L104.607 45.2962V45.3237Z" fill="#01F8D1"/>
</svg>
