<svg width="172" height="86" viewBox="0 0 172 86" fill="none" xmlns="http://www.w3.org/2000/svg">
<path d="M48.8126 42.2053C50.2454 39.8912 53.0159 38.8517 55.8018 39.5813C58.2812 40.2314 60.1302 42.5415 60.1583 45.0286C60.1941 48.1082 58.2556 50.4291 55.1534 51.0256C55.03 51.0495 54.9144 51.1253 54.795 51.177H53.4034V51.1741C51.933 50.856 50.5723 50.3472 49.5137 49.2102C47.7824 47.3512 47.4693 44.3745 48.8126 42.2053ZM111.154 39.4104C114.577 38.9651 117.447 41.0484 118.044 44.3069C118.595 47.3189 116.498 50.3651 113.451 50.9836C113.232 51.0274 113.021 51.1114 112.808 51.177H111.218L111.216 51.175C109.879 50.8072 108.597 50.3575 107.598 49.3157C105.892 47.5383 105.539 45.4426 106.299 43.2278C107.063 40.999 108.802 39.7166 111.154 39.4104ZM75.7852 40.9016C77.9683 38.8856 81.7114 38.8438 83.9542 40.7922C85.8664 42.4543 86.4609 44.5358 85.7784 46.9016C85.1137 49.2059 83.4661 50.5537 81.084 51.0129C80.9251 51.0428 80.7761 51.1184 80.6231 51.1741H79.2315C77.6237 50.8162 76.1651 50.2101 75.1085 48.8762C73.1762 46.4347 73.4589 43.0489 75.7852 40.9016ZM124.814 39.4045C127.158 39.166 129.09 39.9456 130.432 42.0452C129.813 42.5263 129.221 42.9853 128.632 43.4446C126.686 41.4704 124.635 41.2061 123.12 42.7151C121.741 44.0909 121.771 46.4862 123.186 47.8342C124.736 49.3095 126.69 49.0529 128.597 47.0667C129.176 47.498 129.765 47.9354 130.398 48.4065C129.514 50.0925 128.009 50.7725 126.308 51.1741H124.724C123.311 50.8103 121.984 50.3178 120.973 49.1848C119.345 47.3616 119.013 45.2714 119.857 43.0745C120.698 40.8776 122.457 39.6431 124.814 39.4045ZM90.3292 40.7366C91.9669 39.4264 93.6527 39.0959 95.4796 39.5413C98.174 40.1974 99.7499 42.4461 99.7042 45.5159C99.6624 48.2993 97.9273 50.3907 95.2667 51.011C93.7089 51.3747 91.4269 50.9244 90.171 49.9924C90.1512 50.1894 90.1606 50.5189 90.1387 50.8264H87.8321V34.7297H90.3292V40.7366ZM42.2286 39.3684C44.2443 39.4739 45.9218 40.7862 46.0372 42.7922C46.1884 45.4306 46.0753 48.25 46.0753 50.9778H43.5196V45.6135C43.5196 45.1224 43.5297 44.631 43.5098 44.1399C43.448 42.5774 42.6459 41.7305 41.253 41.7405C39.8204 41.7505 38.9154 42.6808 38.9053 44.1956C38.8914 46.3846 38.9014 48.7252 38.9014 50.9758H36.294C36.294 48.8862 36.3041 46.6849 36.2862 44.6331C36.2822 44.1819 36.2445 43.7128 36.1192 43.2815C35.8187 42.2437 35.076 41.7365 33.9835 41.7405C32.891 41.7445 32.0375 42.3273 31.7569 43.3313C31.6356 43.7646 31.5919 44.2317 31.588 44.6829C31.57 46.7088 31.5801 48.8902 31.5801 50.9758C30.6628 51.0335 29.8165 50.928 28.9688 50.9797V39.5833H31.5919V40.052C31.616 40.0398 32.7729 39.4616 34.9112 39.4045C36.1727 39.3708 37.2114 39.8935 38.0372 40.969C39.2053 39.8218 40.5868 39.2829 42.2286 39.3684ZM104.064 50.9397H101.565V34.7444H104.064V50.9397ZM142.845 50.8899L142.843 50.8918C142.842 50.8909 142.842 50.8898 142.841 50.8889C142.842 50.8889 142.844 50.8899 142.845 50.8899ZM134.815 44.3811C135.793 43.3227 138.939 39.7626 138.958 39.7405L142.345 39.7307C142.31 39.7686 139.344 42.9624 137.828 44.593C139.457 46.64 141.067 48.6612 142.841 50.8889C141.756 50.8889 139.81 50.8625 139.81 50.8625L139.203 50.2639C139.203 50.2639 136.429 46.7745 134.908 44.8459V50.8206H132.317V34.7639H134.815V44.3811ZM68.169 39.3782C70.2446 39.4935 71.8389 40.88 71.9981 43.1565C72.1732 45.6873 72.0382 48.2379 72.0381 50.8323H69.4669C69.4669 48.7845 69.4729 46.796 69.463 44.8059C69.461 44.3847 69.4411 43.9535 69.3497 43.5442C69.083 42.3513 68.3142 41.7466 67.1182 41.7327C65.8807 41.7188 64.9967 42.3328 64.7042 43.4778C64.5927 43.9132 64.5675 44.3809 64.5655 44.8342C64.5516 46.8203 64.5596 48.8043 64.5596 50.8401H62.0264V39.6116H64.5137L64.4874 40.3508C64.4874 40.3508 64.7164 40.2892 64.7881 40.2395C65.805 39.5278 66.9432 39.3106 68.169 39.3782ZM93.6465 41.7444C91.6825 41.7544 90.3654 43.154 90.3614 45.2375C90.3574 47.3668 91.7163 48.8139 93.7042 48.7942C95.5767 48.7763 97.0356 47.2458 97.0596 45.2717C97.0835 43.2696 95.6007 41.7364 93.6465 41.7444ZM80.0274 41.7444C78.0614 41.7127 76.533 43.2122 76.4971 45.2083C76.4635 47.1822 78.0057 48.7823 79.9337 48.7766C81.8182 48.7687 83.3433 47.2238 83.3712 45.2932C83.3989 43.3568 81.9079 41.7742 80.0274 41.7444ZM54.1524 41.7444C52.1783 41.7165 50.6598 43.2082 50.6319 45.2043C50.6042 47.1566 52.0508 48.7091 53.9551 48.7727C55.8814 48.8363 57.4391 47.2894 57.461 45.2913C57.4828 43.3013 56.0566 41.7724 54.1524 41.7444ZM112.034 41.7444C110.058 41.7404 108.627 43.2297 108.631 45.2834C108.635 47.2637 110.088 48.7647 112.002 48.7708C113.942 48.7767 115.419 47.2301 115.405 45.2102L115.407 45.2083C115.395 43.2042 113.976 41.7485 112.034 41.7444Z" fill="#01F8D1"/>
</svg>
