<svg width="172" height="86" viewBox="0 0 172 86" fill="none" xmlns="http://www.w3.org/2000/svg">
<path d="M131.403 30.3077C133.182 30.3077 134.718 30.8513 136.006 31.9347C137.174 32.9366 138.022 34.2677 138.554 35.9249C138.596 36.0683 138.616 36.2122 138.616 36.3556C138.616 36.8673 138.247 37.2755 137.51 37.5822C136.937 37.7475 136.363 37.911 135.792 38.0743C135.648 38.1162 135.517 38.1359 135.393 38.1359C134.841 38.1358 134.453 37.8689 134.228 37.337C133.388 35.4129 132.447 34.4513 131.403 34.4513C130.871 34.4514 130.406 34.6762 130.007 35.1261C129.609 35.5763 129.41 36.0866 129.41 36.6603C129.41 37.3574 130.268 38.369 131.987 39.6993C134.566 41.6634 136.162 42.9643 136.776 43.5978C138.495 45.3367 139.353 47.088 139.353 48.8468C139.353 50.9123 138.658 52.5556 137.265 53.7726C135.873 54.9915 134.104 55.5988 131.955 55.5988C128.497 55.5986 126.081 53.9932 124.711 50.7804C124.241 49.7149 124.005 48.9995 124.005 48.631C124.006 48.0774 124.434 47.6373 125.291 47.3107C125.904 47.1275 126.515 46.9525 127.127 46.7892C127.29 46.7275 127.443 46.6974 127.587 46.6974C128.075 46.6974 128.484 47.0762 128.81 47.8331C129.36 49.0818 129.677 49.7673 129.758 49.8907C130.29 50.6275 131.013 50.9962 131.931 50.9962C133.461 50.9962 134.226 50.2789 134.226 48.8468C134.226 47.8847 133.399 46.7172 131.748 45.3468C130.196 44.0801 128.647 42.8212 127.097 41.5724C125.446 39.9371 124.619 38.2995 124.619 36.6622C124.619 34.6783 125.314 33.102 126.707 31.9347C127.975 30.8494 129.625 30.3078 131.403 30.3077ZM59.5367 40.7179C59.8832 40.7179 60.1758 40.8412 60.4108 41.0861C60.6458 41.3311 60.7633 41.5981 60.7633 41.8829V48.2394C60.7634 49.0159 61.0146 49.679 61.5162 50.2306C62.0182 50.7824 62.5965 51.0577 63.1901 51.0577C63.7836 51.0577 64.3251 50.7823 64.817 50.2306C65.3089 49.6789 65.5543 49.0161 65.5543 48.2394V41.8829C65.5543 41.5763 65.6777 41.3054 65.9225 41.0704C66.1675 40.8354 66.4646 40.7179 66.8131 40.7179H69.4528C69.7793 40.718 70.0756 40.8355 70.3424 41.0704L70.3405 41.0724C70.6054 41.3074 70.7389 41.5781 70.7389 41.8849V48.755C70.7389 50.6174 70.0339 52.2125 68.6217 53.5431C67.2095 54.8717 65.5325 55.5372 63.5885 55.5372H62.8209C60.8969 55.5371 59.2302 54.8736 57.818 53.5431C56.4058 52.2125 55.6998 50.6174 55.6998 48.755V41.8849C55.6998 41.5981 55.8175 41.331 56.0524 41.0861C56.2873 40.8411 56.5686 40.718 56.8971 40.7179H59.5367ZM97.3756 30.3097C99.3893 30.3097 101.098 30.995 102.506 32.3654C103.915 33.7358 104.618 35.393 104.618 37.337V38.3488C104.618 38.6554 104.489 38.9386 104.234 39.1935C103.977 39.4503 103.676 39.5781 103.328 39.5782H100.75C100.401 39.5782 100.095 39.4504 99.8297 39.1935C99.5648 38.9365 99.4313 38.6555 99.4313 38.3488V38.0128C99.4313 37.1742 99.2235 36.4767 98.8092 35.9249C98.395 35.3734 97.9174 35.0969 97.316 35.0968C96.7146 35.0968 96.1786 35.3791 95.7125 35.9406C95.2444 36.5023 95.0114 37.1941 95.0114 38.0128V48.0499C95.0114 48.8685 95.2379 49.5539 95.6959 50.1056C96.1521 50.6574 96.6786 50.9337 97.2662 50.9337C97.8537 50.9336 98.3738 50.6573 98.8199 50.1056C99.2681 49.5539 99.4908 48.8685 99.4908 48.0499V47.2511C99.4908 46.4125 99.9035 45.9923 100.726 45.9923H103.319C103.689 45.9923 103.999 46.1098 104.246 46.3448C104.493 46.5819 104.616 46.8826 104.616 47.2511V48.4777C104.616 50.4217 103.905 52.0856 102.483 53.4659C101.061 54.8463 99.3473 55.5372 97.3414 55.5372H97.0651C95.0593 55.5372 93.34 54.8463 91.9078 53.4659C90.4756 52.0855 89.7584 50.4218 89.7584 48.4777V37.3351C89.7585 35.393 90.4775 33.7338 91.9156 32.3634C93.3538 30.993 95.0806 30.3078 97.0944 30.3077H97.3717L97.3756 30.3097ZM116.616 30.6466C117.291 30.6468 117.711 31.035 117.875 31.8116L117.873 31.8097L122.753 53.8488C122.834 54.1971 122.752 54.5076 122.505 54.7843C122.261 55.0611 121.952 55.1983 121.582 55.1984H118.804C118.145 55.1983 117.735 54.8024 117.57 54.0079L116.825 50.504C116.763 50.2172 116.639 50.0734 116.456 50.0734H112.714C112.447 50.0734 112.283 50.2172 112.221 50.504L111.578 54.004C111.434 54.8026 111.004 55.2013 110.289 55.2013H107.558C107.19 55.2013 106.893 55.0631 106.668 54.7863C106.443 54.5095 106.361 54.199 106.422 53.8507L110.966 31.8116C111.11 31.0348 111.53 30.6466 112.225 30.6466H116.616ZM50.9733 30.6466C51.2998 30.6466 51.5868 30.7577 51.8317 30.9825C52.0767 31.2076 52.2008 31.485 52.2008 31.8116V54.004C52.2007 54.3324 52.083 54.6129 51.8483 54.8478C51.6132 55.0828 51.3219 55.2003 50.9733 55.2003H48.609C48.2625 55.2003 47.9597 55.0828 47.7047 54.8478C47.448 54.6129 47.32 54.3304 47.3199 54.004V42.0323L44.3424 54.0948C44.1572 54.8318 43.7389 55.2003 43.0836 55.2003H41.6715C41.0381 55.2003 40.6272 54.8319 40.444 54.0948L37.4664 41.5997V54.004C37.4663 54.3325 37.3365 54.6128 37.0817 54.8478C36.8247 55.0828 36.522 55.2003 36.1754 55.2003H33.6578C33.3112 55.2003 33.0245 55.0828 32.7994 54.8478C32.5725 54.6128 32.4607 54.3305 32.4606 54.004V31.8116C32.4606 31.485 32.5781 31.2076 32.8131 30.9825C33.0481 30.7596 33.3293 30.6466 33.6559 30.6466H38.3727C39.0877 30.6466 39.538 31.0566 39.7213 31.8771L42.3864 42.9269L44.8922 31.7501C45.0555 31.0133 45.4637 30.6448 46.1188 30.6447H50.9694L50.9733 30.6466ZM85.8004 30.6427C86.1469 30.6428 86.4535 30.766 86.7203 31.0109C86.9853 31.2579 87.1188 31.5529 87.1188 31.9015V33.9884C87.1188 34.3151 86.9853 34.6084 86.7203 34.8634C86.4555 35.1202 86.1469 35.2481 85.8004 35.2482H79.9996C79.6931 35.2482 79.5399 35.381 79.5397 35.6456V39.6974C79.5397 39.9424 79.6929 40.0665 79.9996 40.0665H84.3903C84.7367 40.0666 85.0434 40.1898 85.3102 40.4347C85.5751 40.6817 85.7086 40.9767 85.7086 41.3253V43.3507C85.7086 43.6774 85.5751 43.9707 85.3102 44.2257C85.0454 44.4825 84.7386 44.6094 84.3903 44.6095H79.9996C79.6929 44.6095 79.5397 44.7533 79.5397 45.0402V50.0441C79.5398 50.3306 79.6931 50.4737 79.9996 50.4738H86.109L86.1051 50.4698C86.4516 50.4699 86.7581 50.5997 87.025 50.8546C87.2899 51.1095 87.4234 51.4021 87.4235 51.7286V53.9396C87.4235 54.2663 87.29 54.5596 87.025 54.8146C86.7602 55.0714 86.4535 55.1983 86.1051 55.1984H75.7311C75.3826 55.1984 75.076 55.0713 74.8112 54.8146C74.5462 54.5596 74.4127 54.2663 74.4127 53.9396V31.9015C74.4127 31.5529 74.5359 31.2559 74.7809 31.0109C75.0259 30.7659 75.3446 30.6427 75.733 30.6427H85.8004ZM113.116 44.9503C113.076 45.2151 113.167 45.3487 113.392 45.3488H115.388V45.3507C115.653 45.3507 115.767 45.2273 115.725 44.9825L114.375 37.7374L113.116 44.9503ZM59.5709 30.6447C60.2285 30.6448 60.7611 31.1775 60.7614 31.8351V34.5148C60.7613 35.1725 60.2286 35.706 59.5709 35.7062H56.8912C56.2335 35.7061 55.6999 35.1725 55.6998 34.5148V31.8351C55.7001 31.1775 56.2336 30.6448 56.8912 30.6447H59.5709ZM69.5504 30.6447C70.208 30.6448 70.7406 31.1775 70.7408 31.8351V34.5148C70.7408 35.1725 70.2081 35.706 69.5504 35.7062H66.8707C66.213 35.706 65.6804 35.1725 65.6803 34.5148V31.8351C65.6805 31.1775 66.2131 30.6448 66.8707 30.6447H69.5504Z" fill="#01F8D1"/>
</svg>
