<svg width="172" height="86" viewBox="0 0 172 86" fill="none" xmlns="http://www.w3.org/2000/svg">
<path fill-rule="evenodd" clip-rule="evenodd" d="M43.9159 31.6715H32.2468V34.3157C34.0149 34.3157 34.0149 34.6683 34.0149 35.3734V45.9502C34.0149 46.479 34.0149 47.0079 32.2468 47.0079V49.6521H40.9102V47.0079C38.9654 47.0079 38.9654 46.479 38.9654 45.9502V43.4823H43.9159C47.2752 43.4823 49.9273 40.8381 49.9273 37.665C49.9273 34.3157 47.2752 31.6715 43.9159 31.6715ZM42.3247 40.8381H38.9654V34.3157H42.3247C43.5623 34.3157 44.6231 35.7259 44.6231 37.4887C44.6231 39.2515 43.5623 40.8381 42.3247 40.8381ZM62.4804 46.1265V41.1906C62.4804 37.4888 58.2371 37.4887 56.1154 37.4887C53.8169 37.4887 50.1041 38.0176 50.1041 40.3092C50.1041 41.1906 50.9881 41.8958 51.8721 41.8958C52.9329 41.8958 53.817 41.1906 53.817 40.4855C53.817 39.6041 55.0546 39.0753 56.1154 39.0753C57.1762 39.0753 58.2371 39.6041 58.2371 40.4855C58.2371 40.8381 58.2371 41.5432 56.1154 41.8958C54.701 42.072 52.5793 42.4246 51.8721 42.7772C50.4577 43.306 49.22 44.1874 49.22 46.3028C49.22 48.4181 51.5185 49.8284 53.817 49.8284C55.585 49.8284 57.1762 49.6521 58.2371 48.4181V49.6521H63.718V47.3604C62.4804 47.1842 62.4804 46.8316 62.4804 46.1265ZM58.2371 45.2451C58.2371 46.3028 57.353 47.1842 56.1154 47.3604C55.0546 47.3604 53.817 47.0079 53.817 45.7739C53.817 44.54 54.8778 44.54 56.1154 44.1874C57.1762 44.0111 57.1762 44.0111 58.2371 43.6586V45.2451ZM132.672 37.3125C128.959 37.3125 125.776 40.133 125.776 43.4823C125.776 46.8316 128.782 49.6521 132.672 49.6521C136.385 49.6521 139.567 46.8316 139.567 43.4823C139.567 40.133 136.561 37.3125 132.672 37.3125ZM132.672 47.5367C131.434 47.5367 130.55 45.7739 130.55 43.6586C130.55 41.5432 131.611 39.7804 132.672 39.7804C133.909 39.7804 134.793 41.5432 134.793 43.6586C134.97 45.7739 133.909 47.5367 132.672 47.5367ZM108.273 37.3125C104.913 37.3125 101.377 39.4278 101.377 43.6586C101.377 48.4181 106.151 49.8284 108.449 49.6521C111.632 49.6521 114.638 48.5944 114.638 45.9502C114.638 45.2451 113.93 44.54 113.046 44.7162C112.516 44.7162 112.162 44.8925 111.986 45.0688C111.278 45.5976 111.278 46.1265 110.571 46.6553C110.041 47.0079 109.51 47.3604 108.449 47.3604C107.035 47.3604 106.328 45.7739 106.328 44.0111H115.522C115.168 39.7804 111.809 37.3125 108.273 37.3125ZM105.974 42.2483C105.974 40.6618 106.858 39.4278 108.096 39.4278C109.334 39.4278 110.218 40.6618 110.218 42.2483H105.974ZM123.655 37.3125C122.063 37.3125 121.356 38.1939 120.649 39.0753V37.665H115.345V39.9567C116.406 39.9567 116.406 40.133 116.406 40.6618V49.4758H120.649V42.072C120.649 41.0144 121.356 40.6618 121.71 40.6618C121.71 41.3669 122.417 42.4246 123.655 42.4246C124.715 42.4246 125.953 41.3669 125.776 39.9567C125.776 38.7227 125.246 37.3125 123.655 37.3125ZM95.1892 37.4887C94.4819 37.4887 93.7747 37.4888 93.2443 37.665C92.7139 37.8413 91.8299 38.0176 91.2995 38.5464V37.665H85.6417V39.9567C86.7026 39.9567 87.0562 39.9567 87.0562 41.1906V51.0623C87.0562 51.9437 86.7026 51.9437 85.6417 51.9437V54.2354H92.5371V51.9437C91.8299 51.9437 91.2995 51.9437 91.2995 51.0623V48.2418C91.8299 48.7707 92.3603 49.1232 92.8907 49.2995C93.4211 49.4758 94.3051 49.6521 95.0124 49.6521C96.6036 49.6521 97.8412 48.947 98.902 47.8893C99.7861 46.8316 100.316 45.5976 100.316 43.4823C100.316 41.5432 99.6093 39.7804 98.7253 39.0753C97.6644 37.8413 96.7804 37.4887 95.1892 37.4887ZM94.8356 46.3028C94.482 46.8316 93.9515 47.1842 93.2443 47.1842C92.5371 47.1842 92.0067 46.8316 91.6531 46.3028C91.4763 45.7739 91.1227 45.2451 91.1227 44.54C91.1227 44.3637 91.1227 44.0111 91.1227 43.8348V43.306C91.1227 42.072 91.4763 41.1906 91.8299 40.6618C92.1835 40.133 92.8907 39.7804 93.4211 39.7804C93.9515 39.7804 94.6588 40.133 94.8356 40.6618C95.1892 41.1906 95.366 42.2483 95.366 43.306C95.366 44.54 95.1892 45.5976 94.8356 46.3028ZM85.4649 49.4758V47.1842C84.0505 47.1842 84.0505 46.8316 84.0505 46.1265V41.0144C84.0505 39.7804 83.1665 37.4887 79.8072 37.4887C77.8623 37.4887 76.4479 38.7227 76.4479 38.7227C75.2103 37.4888 74.1495 37.4887 73.2654 37.4887C72.5582 37.4887 71.1438 37.4888 69.5525 38.7227V37.4887H63.8948V39.7804C64.9556 39.7804 65.3092 40.133 65.3092 41.0144V49.4758H69.5525V41.8958C69.5525 41.0144 70.0829 39.9567 71.1438 39.9567C72.5582 39.9567 72.735 41.1906 72.5582 41.8958V49.4758H76.8015V41.8958C76.8015 41.0144 77.3319 39.9567 78.3927 39.9567C79.8072 39.9567 79.8072 41.8958 79.8072 41.8958V49.4758H85.4649Z" fill="#01F8D1"/>
</svg>
